<?xml version="1.0" encoding="UTF-8" standalone="no"?>
<svg
   xmlns:dc="http://purl.org/dc/elements/1.1/"
   xmlns:cc="http://creativecommons.org/ns#"
   xmlns:rdf="http://www.w3.org/1999/02/22-rdf-syntax-ns#"
   xmlns:svg="http://www.w3.org/2000/svg"
   xmlns="http://www.w3.org/2000/svg"
   xmlns:sodipodi="http://sodipodi.sourceforge.net/DTD/sodipodi-0.dtd"
   xmlns:inkscape="http://www.inkscape.org/namespaces/inkscape"
   style="isolation:isolate"
   viewBox="0 0 60 60"
   width="60pt"
   height="60pt"
   version="1.1"
   id="svg21"
   sodipodi:docname="profile_icon.svg"
   inkscape:version="1.0.2 (e86c870879, 2021-01-15)"
   inkscape:export-filename="/home/jacob/.var/app/org.pegasus_frontend.Pegasus/config/pegasus-frontend/themes/switchOS-cyan/assets/images/profile_icon2.png"
   inkscape:export-xdpi="300"
   inkscape:export-ydpi="300">
  <metadata
     id="metadata25">
    <rdf:RDF>
      <cc:Work
         rdf:about="">
        <dc:format>image/svg+xml</dc:format>
        <dc:type
           rdf:resource="http://purl.org/dc/dcmitype/StillImage" />
      </cc:Work>
    </rdf:RDF>
  </metadata>
  <sodipodi:namedview
     pagecolor="#ffffff"
     bordercolor="#666666"
     borderopacity="1"
     objecttolerance="10"
     gridtolerance="10"
     guidetolerance="10"
     inkscape:pageopacity="0"
     inkscape:pageshadow="2"
     inkscape:window-width="1268"
     inkscape:window-height="1360"
     id="namedview23"
     showgrid="false"
     inkscape:zoom="6.3"
     inkscape:cx="47.962058"
     inkscape:cy="37.486005"
     inkscape:window-x="1284"
     inkscape:window-y="35"
     inkscape:window-maximized="0"
     inkscape:current-layer="g17" />
  <defs
     id="defs5">
    <clipPath
       id="_clipPath_2bC4Uq3gm5P7DGDnEBh1sGquzJ0qJ7Dr">
      <rect
         width="60"
         height="60"
         id="rect2" />
    </clipPath>
  </defs>
  <g
     clip-path="url(#_clipPath_2bC4Uq3gm5P7DGDnEBh1sGquzJ0qJ7Dr)"
     id="g19">
    <g
       id="g17">
      <circle
         vector-effect="non-scaling-stroke"
         cx="30"
         cy="30"
         r="28.5"
         fill="rgb(51,51,51)"
         id="circle7"
         style="fill:#272727;fill-opacity:1" />
      <path
         d=" M 30 3 C 44.912 3 57 15.088 57 30 C 57 44.912 44.912 57 30 57 C 15.088 57 3 44.912 3 30 C 3 15.088 15.088 3 30 3 Z  M 30 0 C 13.431 0 0 13.431 0 30 C 0 46.569 13.431 60 30 60 C 46.569 60 60 46.569 60 30 C 60 13.431 46.569 0 30 0 Z "
         fill="rgb(255,255,255)"
         id="path9"
         style="fill:#cccccc;fill-opacity:1" />
      <path
         d=" M 14 22.26 L 14 27.53 L 28.48 24 C 28.48 24 28.48 21.14 30.89 20.49 C 33.3 19.84 34.4 22.7 34.4 22.7 L 47.56 19.63 C 47.14 17.929 46.466 16.3 45.56 14.8 L 31.56 18.09 L 25.2 16.56 L 25.2 19.63 L 14 22.26 Z "
         fill="rgb(255,75,75)"
         id="path11"
         style="fill:#cccccc;fill-opacity:1" />
      <path
         d=" M 14 30.6 L 14 35.86 L 25.19 33.23 L 25.19 27.96 L 14 30.6 L 14 30.6 Z "
         fill="rgb(255,75,75)"
         id="path13"
         style="fill:#cccccc;fill-opacity:1" />
      <path
         d=" M 14 38.93 L 14 44.2 L 25.19 41.56 L 25.19 44.2 L 31.55 44.2 L 31.55 40 C 31.55 40 46.9 37.18 48 22.7 L 42.52 24 C 42.52 24 42.3 30.8 32.65 34.53 L 14 38.93 Z "
         fill="rgb(255,75,75)"
         id="path15"
         style="fill:#cccccc;fill-opacity:1" />
    </g>
  </g>
</svg>
